PathFileType	4	(X/Y/Z)	 s06c0001.trc
DataRate	CameraRate	NumFrames	NumMarkers	Units	OrigDataRate	OrigDataStartFrame	OrigNumFrames
200	200	4	49	mm	200	1751	2000
Frame#	Time	racr			lacr			c7			jug			rlel			rdr			llel			ldr			s2			lic			ric			lasi			rasi			rpsi			lpsi			rgt			lgt			rth1			rth2			rth3			rth4			rlfc			rmfc			rsh1			rsh2			rsh3			rsh4			rlmal			rmmal			rcal			rtoe			rmt5			rmt1			lth1			lth2			lth4			lth3			llfc			lmfc			llmal			lmmal			lcal			lmt1			lmt5			lsh1			lsh2			lsh3			lsh4			ltoe			
		X1	Y1	Z1	X2	Y2	Z2	X3	Y3	Z3	X4	Y4	Z4	X5	Y5	Z5	X6	Y6	Z6	X7	Y7	Z7	X8	Y8	Z8	X9	Y9	Z9	X10	Y10	Z10	X11	Y11	Z11	X12	Y12	Z12	X13	Y13	Z13	X14	Y14	Z14	X15	Y15	Z15	X16	Y16	Z16	X17	Y17	Z17	X18	Y18	Z18	X19	Y19	Z19	X20	Y20	Z20	X21	Y21	Z21	X22	Y22	Z22	X23	Y23	Z23	X24	Y24	Z24	X25	Y25	Z25	X26	Y26	Z26	X27	Y27	Z27	X28	Y28	Z28	X29	Y29	Z29	X30	Y30	Z30	X31	Y31	Z31	X32	Y32	Z32	X33	Y33	Z33	X34	Y34	Z34	X35	Y35	Z35	X36	Y36	Z36	X37	Y37	Z37	X38	Y38	Z38	X39	Y39	Z39	X40	Y40	Z40	X41	Y41	Z41	X42	Y42	Z42	X43	Y43	Z43	X44	Y44	Z44	X45	Y45	Z45	X46	Y46	Z46	X47	Y47	Z47	X48	Y48	Z48	X49	Y49	Z49	
1751	8.7550	225.956045	1418.309272	397.841012	226.732188	1429.743916	43.694536	188.941120	1491.054881	218.302643	309.315790	1395.149923	223.908840	249.934499	1202.712752	577.380357	358.340527	1048.590500	767.509451	231.647328	1207.352127	-127.636833	328.966734	1071.078473	-328.733095	111.682627	964.903885	231.184952	262.023415	1008.476248	51.143473	275.340073	986.917334	388.507855	314.952078	955.493579	79.822331	328.450743	945.565688	350.050206	135.681269	998.615344	258.549063	121.893189	995.826338	194.956820	237.460441	872.032270	401.587480	240.939884	896.979486	28.063329	248.384862	749.859028	420.483972	257.050091	660.295921	413.833437	221.036125	582.254417	400.252135	293.531875	656.053219	404.387607	203.868233	473.523477	380.468351	218.898300	450.323145	272.338778	173.420943	353.173241	402.045474	187.455987	267.629341	381.993621	159.206400	186.370918	370.638421	215.989076	269.820576	354.655871	154.611632	99.741373	358.426689	199.774751	121.986167	273.336907	109.502158	65.632602	297.121563	382.111064	75.638232	334.598066	280.671048	43.257444	392.355099	303.910966	59.780465	276.994489	225.380209	764.391611	12.182194	239.737007	678.320681	17.076742	276.052025	675.077484	25.350828	207.912227	595.662826	29.096588	180.126589	477.245746	49.732305	201.302653	455.771829	159.577824	154.505126	99.232099	56.010213	170.982099	121.937205	141.016328	100.982403	58.877726	110.517515	310.764734	52.401671	132.966153	289.991805	51.064825	17.841059	158.277378	370.761685	23.904842	176.136714	286.016364	36.864474	149.315665	201.994899	38.037811	206.922053	286.441340	61.419650	380.340499	71.583716	69.481143	
1752	8.7600	225.980828	1418.301983	397.844610	226.794833	1429.732464	43.689477	189.004330	1491.064632	218.272820	309.343334	1395.135957	223.927701	249.950239	1202.717884	577.394407	358.381014	1048.596424	767.515193	231.708965	1207.343444	-127.604678	329.022491	1071.072476	-328.710909	111.728352	964.896395	231.179607	262.087754	1008.481343	51.157419	275.368500	986.908897	388.524136	314.982514	955.486770	79.810801	328.472183	945.567377	350.073905	135.706909	998.616622	258.553881	121.934283	995.827049	194.929351	237.473200	872.022652	401.586414	240.998663	896.972915	28.064340	248.402450	749.864420	420.490254	257.061148	660.290494	413.844347	221.031625	582.252294	400.242491	293.543715	656.047236	404.393957	203.881305	473.513981	380.453789	218.905808	450.322384	272.343036	173.421457	353.188278	402.039650	187.446160	267.642059	382.006591	159.239906	186.377926	370.639911	215.983393	269.822907	354.643442	154.615263	99.729421	358.436360	199.773564	121.987714	273.337236	109.502144	65.646253	297.111593	382.109807	75.625312	334.594890	280.639634	43.289282	392.357540	303.926188	59.783527	277.013356	225.415881	764.390627	12.175544	239.796206	678.314400	17.093523	276.079081	675.087635	25.375340	207.968404	595.652074	29.107251	180.162704	477.246079	49.723542	201.344490	455.764245	159.578256	154.514589	99.208662	56.021358	170.974249	121.936609	141.028681	100.993365	58.866183	110.533190	310.769415	52.389428	132.951858	290.003381	51.064894	17.852189	158.298134	370.757943	23.899818	176.151773	285.998615	36.869285	149.317914	201.996439	38.043811	206.943722	286.444409	61.432115	380.360338	71.579029	69.495297	
1753	8.7650	226.015715	1418.301600	397.853110	226.824695	1429.723943	43.692127	189.017405	1491.055396	218.318935	309.379475	1395.113705	223.945041	249.996870	1202.707597	577.397843	358.431639	1048.591719	767.514728	231.772525	1207.334703	-127.602825	329.078653	1071.058035	-328.691438	111.752129	964.904257	231.173175	262.143338	1008.462209	51.174098	275.383615	986.889911	388.514501	315.028117	955.494748	79.824150	328.501473	945.564347	350.085085	135.746402	998.607371	258.537893	121.958141	995.845636	194.925828	237.486163	872.034220	401.579205	241.050430	896.971706	28.078159	248.412414	749.866976	420.492098	257.072235	660.285878	413.849157	221.051304	582.250034	400.253433	293.552527	656.038596	404.403103	203.883729	473.527979	380.454626	218.923351	450.338022	272.342128	173.420571	353.177733	402.046139	187.446087	267.644354	382.008189	159.236876	186.364096	370.630590	216.005003	269.829498	354.645772	154.622466	99.726554	358.413154	199.793724	121.979341	273.326084	109.501629	65.661996	297.118278	382.110676	75.641667	334.593739	280.642957	43.282072	392.344898	303.912975	59.788723	277.008517	225.468569	764.390767	12.178157	239.833254	678.303848	17.108044	276.111735	675.089237	25.369857	207.981846	595.657242	29.107535	180.182900	477.246718	49.727554	201.389634	455.761725	159.594063	154.517480	99.222615	56.033183	170.967830	121.954317	141.034679	100.980576	58.874860	110.526138	310.763873	52.395992	132.967524	289.995004	51.072687	17.832727	158.316710	370.758514	23.904502	176.187460	286.000124	36.879656	149.332441	202.012805	38.038123	206.952129	286.444741	61.441291	380.349668	71.569903	69.488503	
1754	8.7700	226.036331	1418.297256	397.853462	226.867459	1429.723284	43.698532	189.049334	1491.064982	218.298418	309.402054	1395.115515	223.968141	250.026358	1202.699451	577.388642	358.456298	1048.589065	767.521850	231.832058	1207.340890	-127.595022	329.143955	1071.051949	-328.671452	111.788075	964.900588	231.159081	262.182184	1008.462419	51.174617	275.410893	986.898875	388.510748	315.059672	955.481303	79.823081	328.531290	945.564286	350.080291	135.777038	998.608414	258.541936	122.019413	995.825692	194.902806	237.514366	872.004758	401.597384	241.070617	896.966047	28.072774	248.425344	749.862132	420.491569	257.074741	660.305269	413.855037	221.073229	582.252057	400.246682	293.561834	656.040261	404.406569	203.898733	473.523029	380.450467	218.935110	450.331096	272.346567	173.436516	353.183704	402.037695	187.470209	267.627065	381.981862	159.212520	186.370576	370.618589	216.005916	269.831379	354.646701	154.607521	99.752415	358.417713	199.790020	121.990644	273.317360	109.502137	65.646247	297.111593	382.110413	75.629244	334.575926	280.659554	43.263986	392.365331	303.905794	59.795955	276.986692	225.486030	764.390153	12.167667	239.846549	678.306340	17.092156	276.138870	675.076947	25.390523	208.009205	595.646674	29.106104	180.195860	477.251139	49.726644	201.400552	455.772157	159.594315	154.519577	99.224525	56.015997	170.983913	121.939095	141.035994	100.992756	58.865556	110.527086	310.758363	52.388946	132.952490	290.007782	51.067354	17.839374	158.334922	370.767151	23.916617	176.176184	286.015571	36.874877	149.339263	202.012175	38.034531	206.978550	286.430681	61.467738	380.356237	71.561268	69.495668	
